<?xml version="1.0" encoding="UTF-8" standalone="no"?>
<!DOCTYPE svg PUBLIC "-//W3C//DTD SVG 20010904//EN"
              "http://www.w3.org/TR/2001/REC-SVG-20010904/DTD/svg10.dtd">

<svg xmlns="http://www.w3.org/2000/svg"
     width="3in" height="1.94444in"
     viewBox="0 0 216 140">
  <path id="Sans nom"
        fill="none" stroke="black" stroke-width="1"
        d="M 51.64,93.73
           C 51.64,93.73 54.73,98.45 54.73,98.45
             54.73,98.45 58.91,104.09 58.91,104.09
             58.91,104.09 65.64,108.27 65.64,108.27
             65.64,108.27 71.09,108.73 71.09,108.73
             71.09,108.73 76.09,107.27 76.09,107.27
             76.09,107.27 81.27,104.27 81.27,104.27
             81.27,104.27 87.27,100.27 87.27,100.27
             87.27,100.27 121.64,73.27 121.64,73.27
             121.64,73.27 126.61,71.57 126.61,71.57
             126.61,71.57 132.30,70.52 132.30,70.52
             132.30,70.52 134.09,70.74 134.22,70.83
             134.35,70.91 137.39,73.09 137.39,73.09
             137.39,73.09 137.35,77.48 137.35,77.48
             137.35,77.48 134.52,84.17 134.52,84.17
             134.52,84.17 128.30,92.17 128.30,92.17
             128.30,92.17 118.48,102.57 118.48,102.57
             118.48,102.57 110.74,107.39 110.74,107.39
             110.74,107.39 106.13,108.30 106.13,108.30
             106.13,108.30 102.52,105.70 102.52,105.70
             102.52,105.70 103.04,99.61 103.04,99.61
             103.04,99.61 104.83,92.87 104.83,92.87
             104.83,92.87 108.65,85.09 108.65,85.09
             108.65,85.09 117.04,78.57 117.04,78.57
             117.04,78.57 121.96,75.83 121.96,75.83
             121.96,75.83 121.83,79.35 121.83,79.35
             121.83,79.35 121.87,83.09 121.87,83.09
             121.87,83.09 122.39,86.65 122.39,86.65
             122.39,86.65 123.17,88.61 123.17,88.61
             123.17,88.61 125.43,90.78 125.43,90.78
             125.43,90.78 131.81,94.06 131.81,94.06
             131.81,94.06 136.69,95.69 136.69,95.69
             136.69,95.69 142.00,96.00 142.00,96.00
             142.00,96.00 147.25,94.63 147.25,94.63
             147.25,94.63 152.81,90.63 152.81,90.63
             152.81,90.63 182.25,67.22 182.25,67.22
             182.25,67.22 120.18,138.91 120.18,138.91M 170.44,84.13
           C 170.44,84.13 180.44,77.69 180.44,77.69
             180.44,77.69 187.38,73.44 187.38,73.44
             187.38,73.44 191.75,72.13 191.75,72.06
             191.75,72.00 195.00,72.44 195.00,72.44
             195.00,72.44 196.81,75.31 196.81,75.31
             196.81,75.31 196.00,81.25 196.00,81.25
             196.00,81.25 190.75,89.13 190.75,89.13
             190.75,89.13 183.63,96.25 183.63,96.25
             183.63,96.25 179.19,101.25 179.19,101.25
             179.19,101.25 174.81,104.50 174.81,104.50
             174.81,104.50 169.19,106.19 169.19,106.19
             169.19,106.19 165.44,105.06 165.44,105.06
             165.44,105.06 163.56,103.19 163.56,103.19
             163.56,103.19 160.75,96.56 160.75,96.56
             160.75,96.56 159.81,93.81 159.81,93.81M 125.04,17.62
           C 125.04,17.62 114.76,17.47 114.76,17.47
             114.76,17.47 111.27,17.36 111.27,17.36
             111.27,17.36 110.76,18.27 110.67,18.27
             110.58,18.27 109.13,20.50 109.13,20.50
             109.13,20.50 107.19,23.00 107.19,23.00
             107.19,23.00 106.19,24.31 106.19,24.31
             106.19,24.31 63.06,80.81 63.06,80.81
             63.06,80.81 59.75,84.50 59.75,84.50
             59.75,84.50 55.45,89.27 55.45,89.27
             55.45,89.27 40.55,103.45 40.55,103.45
             40.55,103.45 29.55,109.64 29.55,109.64
             29.55,109.64 21.82,111.09 21.82,111.09
             21.82,111.09 15.91,108.91 15.91,108.91
             15.91,108.91 13.09,104.55 13.09,104.55
             13.09,104.55 13.18,97.73 13.18,97.73
             13.18,97.73 15.73,91.64 15.73,91.64
             15.73,91.64 22.82,84.45 22.82,84.45
             22.82,84.45 32.64,78.18 32.64,78.18M 62.22,22.25
           C 62.22,22.25 55.72,26.00 55.72,26.00
             55.72,26.00 51.66,28.78 51.66,28.78
             51.66,28.78 50.44,29.63 50.44,29.63
             50.44,29.63 43.31,35.38 43.31,35.38
             43.31,35.38 33.64,43.18 33.64,43.18
             33.64,43.18 39.73,38.36 39.73,38.36
             39.73,38.36 46.00,33.27 46.00,33.27
             46.00,33.27 50.46,29.64 50.46,29.64
             50.46,29.64 55.82,26.00 55.82,26.00
             55.82,26.00 62.28,22.27 62.28,22.27
             62.28,22.27 70.37,19.36 70.55,19.36
             70.73,19.36 81.82,16.82 81.82,16.82
             81.82,16.82 94.28,16.82 94.28,16.82
             94.28,16.82 114.73,17.45 114.73,17.45
             114.73,17.45 125.09,17.64 125.09,17.64
             125.09,17.64 137.55,16.82 137.55,16.82
             137.55,16.82 145.91,15.36 145.91,15.36
             145.91,15.36 153.55,13.36 153.55,13.36" />
</svg>
